<svg width="25" height="24" viewBox="0 0 25 24" fill="none" xmlns="http://www.w3.org/2000/svg">
<g clip-path="url(#clip0_2002_2196)">
<g clip-path="url(#clip1_2002_2196)">
<g clip-path="url(#clip2_2002_2196)">
<path d="M12.72 24C19.3474 24 24.72 18.6274 24.72 12C24.72 5.37258 19.3474 0 12.72 0C6.09258 0 0.720001 5.37258 0.720001 12C0.720001 18.6274 6.09258 24 12.72 24Z" fill="white"/>
<path d="M12.72 22C18.2428 22 22.72 17.5228 22.72 12C22.72 6.47715 18.2428 2 12.72 2C7.19715 2 2.72 6.47715 2.72 12C2.72 17.5228 7.19715 22 12.72 22Z" fill="white"/>
<path d="M12.2852 11.9993H22.72C22.72 11.0967 22.5996 10.2224 22.3755 9.39062H12.2852V11.9993Z" fill="#D80027"/>
<path d="M12.2852 6.78449H21.2522C20.6401 5.78558 19.8574 4.90265 18.9448 4.17578H12.2852V6.78449Z" fill="#D80027"/>
<path d="M12.7198 22.002C15.0733 22.002 17.2365 21.1885 18.9447 19.8281H6.49499C8.20319 21.1885 10.3664 22.002 12.7198 22.002Z" fill="#D80027"/>
<path d="M4.18765 17.2181H21.2522C21.7436 16.4162 22.1248 15.5396 22.3754 14.6094H3.06441C3.31507 15.5396 3.6962 16.4162 4.18765 17.2181Z" fill="#D80027"/>
<path d="M7.35219 3.56164H8.26348L7.41582 4.17746L7.73961 5.17391L6.89199 4.55809L6.04437 5.17391L6.32406 4.31309C5.57773 4.93477 4.92359 5.66313 4.38453 6.47469H4.67652L4.13695 6.86668C4.05289 7.00691 3.97227 7.14937 3.895 7.29395L4.15266 8.08695L3.67195 7.7377C3.55246 7.99086 3.44316 8.24973 3.34492 8.51398L3.62879 9.38773H4.67652L3.82887 10.0036L4.15266 11L3.30504 10.3842L2.7973 10.7531C2.74648 11.1616 2.72 11.5777 2.72 12H12.72C12.72 6.47719 12.72 5.82609 12.72 2C10.7445 2 8.90301 2.57305 7.35219 3.56164ZM7.73961 11L6.89199 10.3842L6.04437 11L6.36816 10.0036L5.52051 9.38773H6.56824L6.89199 8.39129L7.21574 9.38773H8.26348L7.41582 10.0036L7.73961 11ZM7.41582 7.09051L7.73961 8.08695L6.89199 7.47113L6.04437 8.08695L6.36816 7.09051L5.52051 6.47469H6.56824L6.89199 5.47824L7.21574 6.47469H8.26348L7.41582 7.09051ZM11.3266 11L10.479 10.3842L9.63133 11L9.95512 10.0036L9.10746 9.38773H10.1552L10.479 8.39129L10.8027 9.38773H11.8504L11.0028 10.0036L11.3266 11ZM11.0028 7.09051L11.3266 8.08695L10.479 7.47113L9.63133 8.08695L9.95512 7.09051L9.10746 6.47469H10.1552L10.479 5.47824L10.8027 6.47469H11.8504L11.0028 7.09051ZM11.0028 4.17746L11.3266 5.17391L10.479 4.55809L9.63133 5.17391L9.95512 4.17746L9.10746 3.56164H10.1552L10.479 2.5652L10.8027 3.56164H11.8504L11.0028 4.17746Z" fill="#012169"/>
</g>
</g>
</g>
<defs>
<clipPath id="clip0_2002_2196">
<rect width="24" height="24" fill="white" transform="translate(0.720001)"/>
</clipPath>
<clipPath id="clip1_2002_2196">
<rect width="24" height="24" fill="white" transform="translate(0.720001)"/>
</clipPath>
<clipPath id="clip2_2002_2196">
<rect width="24" height="24" fill="white" transform="translate(0.720001)"/>
</clipPath>
</defs>
</svg>
