<svg width="24" height="24" viewBox="0 0 24 24" fill="none" xmlns="http://www.w3.org/2000/svg">
<rect width="24" height="24" rx="12" fill="#00246B"/>
<path d="M8.55471 9.08297C9.87189 7.76508 12.0071 7.76508 13.3242 9.08297C14.5781 10.3369 14.6461 12.3502 13.4766 13.6861L13.3524 13.8291C13.1461 14.0634 12.7922 14.0869 12.5578 13.883C12.3235 13.6791 12.3 13.3228 12.5039 13.0884L12.6305 12.9455C13.4086 12.0548 13.3641 10.7142 12.5274 9.8775C11.6508 8.97984 10.2281 8.97984 9.33049 9.8775L6.69447 12.533C5.81697 13.4119 5.81697 14.8345 6.69447 15.7111C7.53049 16.5267 8.87346 16.5923 9.76174 15.8142L9.90705 15.6877C10.1391 15.4837 10.4953 15.5072 10.6992 15.7416C10.9055 15.9736 10.8797 16.3298 10.6477 16.5337L10.5024 16.6603C9.16643 17.8275 7.15314 17.7619 5.899 16.5056C4.58217 15.1908 4.58217 13.0345 5.899 11.7384L8.55471 9.08297ZM15.4453 14.9189C14.1281 16.2361 11.993 16.2361 10.6758 14.9189C9.4008 13.6439 9.35393 11.6517 10.5211 10.3158L10.6313 10.1892C10.8352 9.95484 11.1914 9.93141 11.4258 10.1353C11.6602 10.3392 11.6836 10.6955 11.4797 10.9298L11.3696 11.0564C10.5891 11.947 10.636 13.2877 11.4703 14.1244C12.3492 15.0009 13.7719 15.0009 14.6508 14.1244L17.3063 11.4689C18.1828 10.59 18.1828 9.16734 17.3063 8.29078C16.4696 7.45453 15.1266 7.40977 14.2383 8.18883L14.093 8.31422C13.861 8.51813 13.5047 8.49469 13.3008 8.26125C13.0946 8.02758 13.1203 7.67203 13.3524 7.46766L13.4977 7.34203C14.8336 6.17316 16.8469 6.24023 18.1008 7.49531C19.418 8.81109 19.418 10.9463 18.1008 12.2634L15.4453 14.9189Z" fill="white"/>
</svg>
