<svg width="24" height="24" viewBox="0 0 24 24" fill="none" xmlns="http://www.w3.org/2000/svg">
<rect width="24" height="24" rx="12" fill="#00246B"/>
<path d="M12.0023 9.30488C10.5117 9.30488 9.30936 10.5072 9.30936 11.9979C9.30936 13.4885 10.5117 14.6908 12.0023 14.6908C13.493 14.6908 14.6953 13.4885 14.6953 11.9979C14.6953 10.5072 13.493 9.30488 12.0023 9.30488ZM12.0023 13.7486C11.0391 13.7486 10.2516 12.9635 10.2516 11.9979C10.2516 11.0322 11.0367 10.2471 12.0023 10.2471C12.968 10.2471 13.7531 11.0322 13.7531 11.9979C13.7531 12.9635 12.9656 13.7486 12.0023 13.7486ZM15.4336 9.19473C15.4336 9.54395 15.1523 9.82285 14.8055 9.82285C14.4562 9.82285 14.1773 9.5416 14.1773 9.19473C14.1773 8.84785 14.4586 8.5666 14.8055 8.5666C15.1523 8.5666 15.4336 8.84785 15.4336 9.19473ZM17.2172 9.83223C17.1773 8.99082 16.9851 8.24551 16.3687 7.63145C15.7547 7.01738 15.0094 6.8252 14.168 6.78301C13.3008 6.73379 10.7016 6.73379 9.83436 6.78301C8.9953 6.82285 8.24999 7.01504 7.63358 7.6291C7.01718 8.24316 6.82733 8.98848 6.78514 9.82988C6.73593 10.6971 6.73593 13.2963 6.78514 14.1635C6.82499 15.0049 7.01718 15.7502 7.63358 16.3643C8.24999 16.9783 8.99296 17.1705 9.83436 17.2127C10.7016 17.2619 13.3008 17.2619 14.168 17.2127C15.0094 17.1729 15.7547 16.9807 16.3687 16.3643C16.9828 15.7502 17.175 15.0049 17.2172 14.1635C17.2664 13.2963 17.2664 10.6994 17.2172 9.83223ZM16.0969 15.0939C15.9141 15.5533 15.5601 15.9072 15.0984 16.0924C14.407 16.3666 12.7664 16.3033 12.0023 16.3033C11.2383 16.3033 9.5953 16.3643 8.90624 16.0924C8.44686 15.9096 8.09296 15.5557 7.9078 15.0939C7.63358 14.4025 7.69686 12.7619 7.69686 11.9979C7.69686 11.2338 7.63593 9.59082 7.9078 8.90176C8.09061 8.44238 8.44452 8.08848 8.90624 7.90332C9.59764 7.6291 11.2383 7.69238 12.0023 7.69238C12.7664 7.69238 14.4094 7.63145 15.0984 7.90332C15.5578 8.08613 15.9117 8.44004 16.0969 8.90176C16.3711 9.59316 16.3078 11.2338 16.3078 11.9979C16.3078 12.7619 16.3711 14.4049 16.0969 15.0939Z" fill="white"/>
</svg>
