<svg width="24" height="24" viewBox="0 0 24 24" fill="none" xmlns="http://www.w3.org/2000/svg">
<rect width="24" height="24" rx="12" fill="#00246B"/>
<path d="M9.10031 16.4998H6.92344V9.48961H9.10031V16.4998ZM8.0107 8.53336C7.31461 8.53336 6.75 7.9568 6.75 7.2607C6.75 6.92634 6.88282 6.60568 7.11925 6.36925C7.35568 6.13282 7.67634 6 8.0107 6C8.34506 6 8.66573 6.13282 8.90215 6.36925C9.13858 6.60568 9.27141 6.92634 9.27141 7.2607C9.27141 7.9568 8.70656 8.53336 8.0107 8.53336ZM17.2477 16.4998H15.0755V13.0873C15.0755 12.274 15.0591 11.231 13.9437 11.231C12.8119 11.231 12.6384 12.1146 12.6384 13.0287V16.4998H10.4639V9.48961H12.5517V10.4459H12.5822C12.8728 9.89508 13.5827 9.31383 14.6419 9.31383C16.845 9.31383 17.25 10.7646 17.25 12.649V16.4998H17.2477Z" fill="white"/>
</svg>
