<svg width="24" height="24" viewBox="0 0 24 24" fill="none" xmlns="http://www.w3.org/2000/svg">
<rect width="24" height="24" rx="12" fill="#00246B"/>
<path d="M18.1325 8.9082C17.9853 8.3539 17.5516 7.91735 17.0009 7.7692C16.0027 7.5 12 7.5 12 7.5C12 7.5 7.99733 7.5 6.9991 7.7692C6.44839 7.91737 6.01466 8.3539 5.86744 8.9082C5.59998 9.91289 5.59998 12.0091 5.59998 12.0091C5.59998 12.0091 5.59998 14.1053 5.86744 15.11C6.01466 15.6643 6.44839 16.0826 6.9991 16.2308C7.99733 16.5 12 16.5 12 16.5C12 16.5 16.0026 16.5 17.0009 16.2308C17.5516 16.0826 17.9853 15.6643 18.1325 15.11C18.4 14.1053 18.4 12.0091 18.4 12.0091C18.4 12.0091 18.4 9.91289 18.1325 8.9082ZM10.6909 13.9123V10.1059L14.0363 12.0091L10.6909 13.9123Z" fill="white"/>
</svg>
