<svg width="24" height="24" viewBox="0 0 24 24" fill="none" xmlns="http://www.w3.org/2000/svg">
<rect width="24" height="24" rx="12" fill="#00246B"/>
<path d="M16.7665 9.55392C16.7741 9.66052 16.7741 9.76713 16.7741 9.87373C16.7741 13.125 14.2995 16.8712 9.77665 16.8712C8.38324 16.8712 7.08884 16.4676 6 15.7671C6.19798 15.79 6.38831 15.7976 6.59391 15.7976C7.74363 15.7976 8.80202 15.4093 9.6472 14.7468C8.56598 14.724 7.65989 14.0159 7.3477 13.0412C7.5 13.0641 7.65227 13.0793 7.81219 13.0793C8.03299 13.0793 8.25382 13.0488 8.45939 12.9956C7.33249 12.7671 6.48729 11.7773 6.48729 10.5818V10.5514C6.81469 10.7341 7.19543 10.8484 7.59895 10.8636C6.93652 10.4219 6.50252 9.66813 6.50252 8.81534C6.50252 8.35849 6.62433 7.93971 6.83754 7.57423C8.0482 9.06661 9.86801 10.0412 11.9086 10.1478C11.8705 9.96509 11.8477 9.77475 11.8477 9.58439C11.8477 8.22905 12.9441 7.125 14.3071 7.125C15.0152 7.125 15.6548 7.42195 16.104 7.90165C16.6598 7.79505 17.1928 7.58946 17.6649 7.30774C17.4822 7.87882 17.0939 8.35852 16.5837 8.66306C17.0786 8.60979 17.5583 8.4727 18 8.28237C17.665 8.76966 17.2462 9.20365 16.7665 9.55392Z" fill="white"/>
</svg>
