<svg width="24" height="24" viewBox="0 0 24 24" fill="none" xmlns="http://www.w3.org/2000/svg">
<rect width="24" height="24" rx="12" fill="#00246B"/>
<path d="M17.25 10.9198C16.2182 10.9222 15.2116 10.6004 14.3726 9.99984V14.1886C14.3723 14.9644 14.1352 15.7216 13.6929 16.359C13.2507 16.9964 12.6243 17.4836 11.8977 17.7554C11.1711 18.0273 10.3788 18.0708 9.62679 17.8802C8.87477 17.6896 8.19886 17.2739 7.68945 16.6888C7.18003 16.1037 6.86139 15.377 6.77613 14.6059C6.69087 13.8348 6.84306 13.056 7.21234 12.3737C7.58162 11.6915 8.1504 11.1382 8.84261 10.7879C9.53483 10.4376 10.3175 10.307 11.0859 10.4135V12.5203C10.7343 12.4097 10.3567 12.413 10.0071 12.5298C9.65742 12.6466 9.35362 12.8709 9.13906 13.1707C8.92449 13.4704 8.81013 13.8303 8.8123 14.1989C8.81448 14.5676 8.93307 14.9261 9.15115 15.2233C9.36923 15.5205 9.67564 15.7412 10.0266 15.8538C10.3776 15.9665 10.7552 15.9654 11.1056 15.8507C11.4559 15.7359 11.761 15.5134 11.9773 15.2149C12.1936 14.9164 12.3101 14.5572 12.3101 14.1886V6H14.3726C14.3712 6.17417 14.3857 6.34811 14.4162 6.51961C14.4878 6.90246 14.6369 7.26666 14.8541 7.58994C15.0714 7.91322 15.3523 8.18878 15.6797 8.39977C16.1455 8.70776 16.6916 8.87191 17.25 8.8718V10.9198Z" fill="white"/>
</svg>
