<svg width="36" height="36" viewBox="0 0 36 36" fill="none" xmlns="http://www.w3.org/2000/svg">
<rect width="36" height="36" rx="18" fill="#262626"/>
<path d="M23 16.5C23 17.9344 22.5344 19.2594 21.75 20.3344L25.7063 24.2937C26.0969 24.6844 26.0969 25.3188 25.7063 25.7094C25.3156 26.1 24.6812 26.1 24.2906 25.7094L20.3344 21.75C19.2594 22.5375 17.9344 23 16.5 23C12.9094 23 10 20.0906 10 16.5C10 12.9094 12.9094 10 16.5 10C20.0906 10 23 12.9094 23 16.5ZM16.5 21C18.9844 21 21 18.9844 21 16.5C21 14.0156 18.9844 12 16.5 12C14.0156 12 12 14.0156 12 16.5C12 18.9844 14.0156 21 16.5 21Z" fill="white"/>
</svg>
