<svg width="46" height="45" viewBox="0 0 46 45" fill="none" xmlns="http://www.w3.org/2000/svg">
<rect x="0.5" width="45" height="45" rx="15" fill="#00246B"/>
<g clip-path="url(#clip0_7_4273)">
<path d="M32.74 22.07C32.69 21.56 32.26 21.18 31.75 21.18H24.2C23.65 21.18 23.2 21.63 23.2 22.18V23.89C23.2 24.44 23.65 24.89 24.2 24.89H28.71C28.6 25.81 28 27.2 26.67 28.13C25.82 28.72 24.69 29.13 23.2 29.13C23.13 29.13 23.07 29.13 23 29.12C20.45 29.04 18.29 27.33 17.51 24.98C17.3 24.35 17.18 23.69 17.18 23C17.18 22.31 17.3 21.64 17.5 21.02C17.56 20.84 17.63 20.66 17.71 20.48C18.63 18.41 20.64 16.95 23 16.88C23.06 16.87 23.13 16.87 23.2 16.87C24.63 16.87 25.7 17.34 26.45 17.86C26.84 18.13 27.36 18.07 27.7 17.74L29.09 16.38C29.53 15.95 29.49 15.22 28.99 14.86C27.4 13.69 25.46 13 23.2 13C23.13 13 23.07 13 23 13.01C19.17 13.08 15.88 15.3 14.27 18.51C13.59 19.87 13.2 21.39 13.2 23C13.2 24.61 13.59 26.13 14.27 27.49H14.28C15.89 30.7 19.18 32.92 23 32.99C23.07 33 23.13 33 23.2 33C25.9 33 28.17 32.11 29.82 30.58C31.71 28.83 32.8 26.27 32.8 23.22C32.8 22.79 32.78 22.42 32.74 22.07Z" fill="white"/>
</g>
<defs>
<clipPath id="clip0_7_4273">
<rect width="24" height="24" fill="white" transform="translate(11.5 11)"/>
</clipPath>
</defs>
</svg>
