<svg width="17" height="16" viewBox="0 0 17 16" fill="none" xmlns="http://www.w3.org/2000/svg">
<g clip-path="url(#clip0_7_4268)">
<path d="M10.1867 6.31719L6.81334 9.69052C6.38001 9.25719 6.11334 8.66385 6.11334 8.00385C6.11334 6.68385 7.18001 5.61719 8.50001 5.61719C9.16001 5.61719 9.75334 5.88385 10.1867 6.31719Z" stroke="#171717" stroke-linecap="round" stroke-linejoin="round"/>
<path d="M12.38 3.84438C11.2134 2.96437 9.88002 2.48438 8.50002 2.48438C6.14668 2.48438 3.95335 3.87104 2.42668 6.27104C1.82668 7.21104 1.82668 8.79104 2.42668 9.73104C2.95335 10.5577 3.56668 11.271 4.23335 11.8444" stroke="#171717" stroke-linecap="round" stroke-linejoin="round"/>
<path d="M6.11334 13.0224C6.87334 13.3424 7.68001 13.5157 8.50001 13.5157C10.8533 13.5157 13.0467 12.1291 14.5733 9.72906C15.1733 8.78906 15.1733 7.20906 14.5733 6.26906C14.3533 5.9224 14.1133 5.59573 13.8667 5.28906" stroke="#171717" stroke-linecap="round" stroke-linejoin="round"/>
<path d="M10.84 8.46875C10.6667 9.40875 9.90002 10.1754 8.96002 10.3488" stroke="#171717" stroke-linecap="round" stroke-linejoin="round"/>
<path d="M6.81331 9.6875L1.83331 14.6675" stroke="#171717" stroke-linecap="round" stroke-linejoin="round"/>
<path d="M15.1666 1.33594L10.1866 6.31594" stroke="#171717" stroke-linecap="round" stroke-linejoin="round"/>
</g>
<defs>
<clipPath id="clip0_7_4268">
<rect width="16" height="16" fill="white" transform="translate(0.5)"/>
</clipPath>
</defs>
</svg>
