<svg width="16" height="16" viewBox="0 0 16 16" fill="none" xmlns="http://www.w3.org/2000/svg">
<path d="M12.6667 7.33464H8.66669V3.33464C8.66669 3.15782 8.59645 2.98826 8.47142 2.86323C8.3464 2.73821 8.17683 2.66797 8.00002 2.66797C7.82321 2.66797 7.65364 2.73821 7.52862 2.86323C7.40359 2.98826 7.33335 3.15782 7.33335 3.33464V7.33464H3.33335C3.15654 7.33464 2.98697 7.40487 2.86195 7.5299C2.73693 7.65492 2.66669 7.82449 2.66669 8.0013C2.66669 8.17811 2.73693 8.34768 2.86195 8.47271C2.98697 8.59773 3.15654 8.66797 3.33335 8.66797H7.33335V12.668C7.33335 12.8448 7.40359 13.0143 7.52862 13.1394C7.65364 13.2644 7.82321 13.3346 8.00002 13.3346C8.17683 13.3346 8.3464 13.2644 8.47142 13.1394C8.59645 13.0143 8.66669 12.8448 8.66669 12.668V8.66797H12.6667C12.8435 8.66797 13.0131 8.59773 13.1381 8.47271C13.2631 8.34768 13.3334 8.17811 13.3334 8.0013C13.3334 7.82449 13.2631 7.65492 13.1381 7.5299C13.0131 7.40487 12.8435 7.33464 12.6667 7.33464Z" fill="black"/>
</svg>
