<svg width="2" height="16" viewBox="0 0 2 16" fill="none" xmlns="http://www.w3.org/2000/svg">
<path d="M1.00195 6.5C1.00195 7.93437 0.972852 9.25938 0.923828 10.3344L1.17109 14.2937C1.19551 14.6844 1.19551 15.3188 1.17109 15.7094C1.14668 16.1 1.10703 16.1 1.08262 15.7094L0.835352 11.75C0.768164 12.5375 0.685352 13 0.595703 13C0.371289 13 0.189453 10.0906 0.189453 6.5C0.189453 2.90937 0.371289 0 0.595703 0C0.820117 0 1.00195 2.90937 1.00195 6.5ZM0.595703 11C0.632637 11 0.66921 10.8836 0.703333 10.6575C0.737456 10.4313 0.76846 10.0998 0.794577 9.68198C0.820693 9.26412 0.84141 8.76804 0.855544 8.22208C0.869678 7.67611 0.876953 7.09095 0.876953 6.5C0.876953 5.90905 0.869678 5.32389 0.855544 4.77792C0.84141 4.23196 0.820693 3.73588 0.794577 3.31802C0.76846 2.90016 0.737456 2.56869 0.703333 2.34254C0.66921 2.1164 0.632637 2 0.595703 2C0.558769 2 0.522196 2.1164 0.488073 2.34254C0.453951 2.56869 0.422946 2.90016 0.396829 3.31802C0.370713 3.73588 0.349996 4.23196 0.335862 4.77792C0.321728 5.32389 0.314453 5.90905 0.314453 6.5C0.314453 7.09095 0.321728 7.67611 0.335862 8.22208C0.349996 8.76804 0.370713 9.26412 0.396829 9.68198C0.422946 10.0998 0.453951 10.4313 0.488073 10.6575C0.522196 10.8836 0.558769 11 0.595703 11Z" fill="#1E1E1E"/>
</svg>
