<svg width="14" height="14" viewBox="0 0 14 14" fill="none" xmlns="http://www.w3.org/2000/svg">
<path d="M13.9665 5.29527C13.8905 5.06859 13.6939 4.90365 13.4575 4.86824L9.39694 4.24775L7.57473 0.365673C7.46984 0.142484 7.24548 0 6.99893 0C6.75237 0 6.52801 0.142484 6.42313 0.365673L4.60091 4.24775L0.540388 4.86824C0.30459 4.90419 0.108701 5.06904 0.0329527 5.29527C-0.042796 5.5215 0.0143199 5.77111 0.180908 5.94186L3.14009 8.97242L2.44022 13.2605C2.40125 13.5006 2.50253 13.742 2.70115 13.8823C2.89978 14.0226 3.16101 14.0375 3.37423 13.9205L7.00084 11.9171L10.6274 13.9205C10.8407 14.0385 11.1025 14.0243 11.3018 13.8839C11.501 13.7436 11.6026 13.5017 11.5634 13.2612L10.8635 8.97306L13.8208 5.94186C13.9866 5.77063 14.0428 5.52108 13.9665 5.29527Z" fill="white"/>
</svg>
